<?xml version="1.0" encoding="utf-8"?><svg xmlns="http://www.w3.org/2000/svg" xmlns:xlink="http://www.w3.org/1999/xlink" width="1084" height="300" preserveAspectRatio="xMidYMid" viewBox="0 0 1084 300" style="z-index:1;margin-right:-2px;display:block;background-repeat-y:initial;background-repeat-x:initial;background-color:rgb(241, 242, 243);animation-play-state:paused" ><g transform="" style="animation-play-state:paused" ><linearGradient id="lg-0.2740832224591807" x1="0" x2="1" y1="0" y2="0" style="animation-play-state:paused" ><stop stop-color="#129d5e" offset="0" style="animation-play-state:paused" ></stop>

  
<stop stop-color="#026a2d" offset="1" style="animation-play-state:paused" ></stop></linearGradient>
<path fill="url(#lg-0.2740832224591807)" opacity="0.9" d="M 0 0 L 0 193.143 Q 54.2 166.857 108.4 147.903 T 216.8 129.513 T 325.2 145.772 T 433.6 138.425 T 542 96.0448 T 650.4 80.8304 T 758.8 52.43 T 867.2 43.0659 T 975.6 37.7431 T 1084 13.4261 L 1084 0 Z" style="opacity:0.9;animation-play-state:paused" ></path>
<path fill="url(#lg-0.2740832224591807)" opacity="0.9" d="M 0 0 L 0 205.916 Q 54.2 208.787 108.4 170.389 T 216.8 151.089 T 325.2 152.079 T 433.6 123.53 T 542 103.39 T 650.4 96.0576 T 758.8 62.6533 T 867.2 54.4165 T 975.6 48.9764 T 1084 29.2499 L 1084 0 Z" style="opacity:0.9;animation-play-state:paused" ></path></g></svg>